<svg xmlns="http://www.w3.org/2000/svg" viewBox="0 0 174 200"><path fill="#dc244c" d="M86.6 0 0 50v100l86.6 50 32.48-18.75v-37.5L86.6 162.5l-54.12-31.25v-62.5L86.6 37.5l54.13 31.25v125L173.21 175V50z"/><path fill="#dc244c" d="M54.13 81.25v37.5L86.6 137.5l32.48-18.75v-37.5L86.6 62.5z"/><path fill="#9e0d38" d="M119.08 143.75v37.5L86.6 200v-37.5zM173.21 50v125l-32.48 18.75v-125z"/><path fill="#ff516b" d="m173.21 50-32.48 18.75L86.6 37.5 32.48 68.75 0 50 86.6 0z"/><path fill="#dc244c" d="M86.6 162.5V200L0 150V50l32.48 18.75v62.5z"/><path fill="#ff516b" d="M119.08 81.25 86.6 100 54.13 81.25 86.6 62.5z"/><path fill="#dc244c" d="M86.6 100v37.5l-32.47-18.75v-37.5z"/><path fill="#9e0d38" d="M119.08 81.25v37.5L86.6 137.5V100z"/></svg>